<?xml version="1.0" encoding="UTF-8"?>
<svg width="14px" height="14px" viewBox="0 0 14 14" version="1.1" xmlns="http://www.w3.org/2000/svg" xmlns:xlink="http://www.w3.org/1999/xlink">
    <title>形状</title>
    <g id="页面-1" stroke="none" stroke-width="1" fill="none" fill-rule="evenodd">
        <g id="质押首页备份-5" transform="translate(-513.000000, -203.000000)" fill="#FCD535" fill-rule="nonzero">
            <g id="yiwen_icon" transform="translate(513.000000, 203.000000)">
                <path d="M7.00000679,6.78940796e-06 L7.00000679,6.78940796e-06 C10.8606546,-0.00531621758 13.9946544,3.12003315 13.9999932,6.9806783 C13.9999932,6.98711953 13.9999932,6.99356075 13.9999932,7.00000679 L13.9999932,7.00000679 C14.0053182,10.8606547 10.8799729,13.9946544 7.01931398,13.9999932 C7.0128728,13.9999932 7.00643161,13.9999932 6.99999045,13.9999932 L6.99999068,13.9999932 C3.13934539,14.0053184 0.00534563175,10.879973 6.79455115e-06,7.01931422 C6.79455115e-06,7.01287554 6.79455115e-06,7.00643686 6.79455115e-06,7.00000679 L6.79455115e-06,6.99999029 C-0.00531822631,3.13934514 3.12002706,0.00534547996 6.98068602,6.78940796e-06 C6.98712731,6.78940796e-06 6.99356861,6.78940796e-06 7.00000679,6.78940796e-06 L7.00000679,6.78940796e-06 Z M6.27587246,2.89656665 L6.27587246,8.20689344 L7.72414593,8.20689344 L7.72414593,2.89656665 L6.27587246,2.89656665 L6.27587246,2.89656665 Z M7.00918164,11.1034403 C7.41228404,11.1034403 7.72414593,10.7732335 7.72414593,10.3701311 C7.72414593,10.1683386 7.65076675,9.98537364 7.50400853,9.85695937 L7.50400852,9.85695936 C7.36649015,9.72428766 7.18189,9.65169831 6.99083674,9.65516686 C6.58773434,9.65516686 6.27587245,9.98537364 6.27587245,10.388476 C6.27587245,10.7915784 6.60607924,11.1034403 7.00918164,11.1034403 L7.00918164,11.1034403 Z" id="形状"></path>
            </g>
        </g>
    </g>
</svg>