<?xml version="1.0" encoding="UTF-8"?>
<svg width="20px" height="20px" viewBox="0 0 20 20" version="1.1" xmlns="http://www.w3.org/2000/svg" xmlns:xlink="http://www.w3.org/1999/xlink">
    <title>刪除</title>
    <defs>
        <linearGradient x1="-16.1027164%" y1="-9.91204412%" x2="93.1102269%" y2="89.8567463%" id="linearGradient-1">
            <stop stop-color="#FEEC65" offset="0%"></stop>
            <stop stop-color="#FCD535" offset="100%"></stop>
        </linearGradient>
    </defs>
    <g id="页面-1" stroke="none" stroke-width="1" fill="none" fill-rule="evenodd">
        <g id="质押首页备份-5" transform="translate(-556.000000, -265.000000)" fill="url(#linearGradient-1)" fill-rule="nonzero">
            <g id="编组-5" transform="translate(384.000000, 257.000000)">
                <g id="刪除" transform="translate(172.000000, 8.000000)">
                    <path d="M10,0 C4.47826087,0 0,4.47826087 0,10 C0,15.5217391 4.47826087,20 10,20 C15.5217391,20 20,15.5217391 20,10 C20,4.47826087 15.5217391,0 10,0 Z M13.7826087,12.7173913 C14.0652174,13 14.0652174,13.4782609 13.7826087,13.7826087 C13.6304348,13.9347826 13.4347826,14 13.2608696,14 C13.0652174,14 12.8695652,13.9347826 12.7391304,13.7826087 L10,11.0652174 L7.2826087,13.7826087 C7.13043478,13.9347826 6.93478261,14 6.73913043,14 C6.54347826,14 6.34782609,13.9347826 6.2173913,13.7826087 C5.93478261,13.5 5.93478261,13.0217391 6.2173913,12.7173913 L8.93478261,10 L6.2173913,7.2826087 C5.93478261,7 5.93478261,6.52173913 6.2173913,6.2173913 C6.5,5.93478261 6.97826087,5.93478261 7.2826087,6.2173913 L10,8.93478261 L12.7173913,6.2173913 C13,5.93478261 13.4782609,5.93478261 13.7826087,6.2173913 C14.0652174,6.5 14.0652174,6.97826087 13.7826087,7.2826087 L11.0652174,10 L13.7826087,12.7173913 Z" id="形状"></path>
                </g>
            </g>
        </g>
    </g>
</svg>