<?xml version="1.0" encoding="UTF-8"?>
<svg width="24px" height="24px" viewBox="0 0 24 24" version="1.1" xmlns="http://www.w3.org/2000/svg" xmlns:xlink="http://www.w3.org/1999/xlink">
    <title>删除备份</title>
    <g id="页面-1" stroke="none" stroke-width="1" fill="none" fill-rule="evenodd">
        <g id="质押首页备份-6" transform="translate(-1311.000000, -284.000000)" fill="#FFFFFF" fill-rule="nonzero">
            <g id="删除备份" transform="translate(1311.000000, 284.000000)">
                <path d="M12,24 C5.43157895,24 0,18.5684211 0,12 C0,5.43157895 5.43157895,0 12,0 C18.5684211,0 24,5.43157895 24,12 C24,18.5684211 18.5684211,24 12,24 Z M12,1.26315789 C6.06315789,1.26315789 1.26315789,6.06315789 1.26315789,12 C1.26315789,17.9368421 6.06315789,22.7368421 12,22.7368421 C17.9368421,22.7368421 22.7368421,17.9368421 22.7368421,12 C22.7368421,6.06315789 17.9368421,1.26315789 12,1.26315789 Z" id="形状"></path>
                <path d="M13.1368421,12 L16.6736842,15.5368421 C16.9263158,15.7894737 16.9263158,16.1684211 16.6736842,16.4210526 C16.4210526,16.6736842 16.0421053,16.6736842 15.7894737,16.4210526 L12.2526316,12.8842105 L8.71578947,16.4210526 C8.46315789,16.6736842 8.08421053,16.6736842 7.83157895,16.4210526 C7.57894737,16.1684211 7.57894737,15.7894737 7.83157895,15.5368421 L11.3684211,12 L7.70526316,8.46315789 C7.45263158,8.21052632 7.45263158,7.83157895 7.70526316,7.57894737 C7.95789474,7.32631579 8.33684211,7.32631579 8.58947368,7.57894737 L12.1263158,11.1157895 L15.7894737,7.57894737 C16.0421053,7.32631579 16.4210526,7.32631579 16.6736842,7.57894737 C16.9263158,7.83157895 16.9263158,8.21052632 16.6736842,8.46315789 L13.1368421,12 Z" id="路径"></path>
            </g>
        </g>
    </g>
</svg>