<?xml version="1.0" encoding="UTF-8"?>
<svg width="20px" height="20px" viewBox="0 0 20 20" version="1.1" xmlns="http://www.w3.org/2000/svg" xmlns:xlink="http://www.w3.org/1999/xlink">
    <title>编组 10</title>
    <defs>
        <linearGradient x1="-16.1027164%" y1="-9.91204412%" x2="93.1102269%" y2="89.8567463%" id="linearGradient-1">
            <stop stop-color="#FEEC65" offset="0%"></stop>
            <stop stop-color="#FCD535" offset="100%"></stop>
        </linearGradient>
    </defs>
    <g id="页面-1" stroke="none" stroke-width="1" fill="none" fill-rule="evenodd">
        <g id="质押首页备份-5" transform="translate(-555.000000, -535.000000)" fill-rule="nonzero">
            <g id="编组-5备份-2" transform="translate(384.000000, 525.000000)">
                <g id="编组-10" transform="translate(171.000000, 10.000000)">
                    <path d="M10,0 C4.47826087,0 0,4.47826087 0,10 C0,15.5217391 4.47826087,20 10,20 C15.5217391,20 20,15.5217391 20,10 C20,4.47826087 15.5217391,0 10,0 Z" id="路径" fill="url(#linearGradient-1)"></path>
                    <path d="M15.3102679,7.21875 L9.25,13.2790179 C9.11160714,13.4174107 8.92857143,13.4866071 8.74553571,13.4866071 C8.5625,13.4866071 8.37946429,13.4174107 8.23883929,13.2790179 L5.20758929,10.2477679 C4.93080357,9.97098214 4.93080357,9.515625 5.20758929,9.23660714 C5.484375,8.95982143 5.93973214,8.95982143 6.21875,9.23660714 L8.74553571,11.7611607 L14.2991071,6.20758929 C14.5758929,5.93080357 15.03125,5.93080357 15.3102679,6.20758929 C15.5870536,6.48660714 15.5870536,6.93973214 15.3102679,7.21875 L15.3102679,7.21875 Z" id="路径" fill="#000000"></path>
                </g>
            </g>
        </g>
    </g>
</svg>