<?xml version="1.0" encoding="UTF-8"?>
<svg width="10px" height="10px" viewBox="0 0 10 10" version="1.1" xmlns="http://www.w3.org/2000/svg" xmlns:xlink="http://www.w3.org/1999/xlink">
    <title>yiwen_icon备份 2</title>
    <g id="页面-1" stroke="none" stroke-width="1" fill="none" fill-rule="evenodd">
        <g id="质押-1" transform="translate(-1464.000000, -234.000000)" fill="#99999F" fill-rule="nonzero">
            <g id="编组-10" transform="translate(1353.000000, 230.000000)">
                <g id="yiwen_icon备份-2" transform="translate(111.000000, 4.000000)">
                    <path d="M5.00000485,4.84957271e-06 L5.00000485,4.84957271e-06 C7.75760292,-0.0037972946 9.99617201,2.22859295 9.99998547,4.98619396 C9.99998547,4.99079483 9.99998547,4.9953957 9.99998547,5.00000485 L9.99998547,5.00000485 C10.003789,7.75760302 7.77140172,9.99617203 5.01379085,9.99998547 C5.00919001,9.99998547 5.00458916,9.99998547 4.99998834,9.99998547 L4.9999885,9.99998547 C2.2423874,10.0037892 0.00381830469,7.7714018 4.85324639e-06,5.01379102 C4.85324639e-06,5.00919196 4.85324639e-06,5.00459291 4.85324639e-06,4.99999388 L4.85324639e-06,4.99998823 C-0.0037987294,2.24238721 2.2285886,0.00381819627 4.98619947,4.84957271e-06 C4.99080039,4.84957271e-06 4.99540131,4.84957271e-06 5.00000485,4.84957271e-06 L5.00000485,4.84957271e-06 Z M4.4827617,2.06897418 L4.4827617,5.86206107 L5.51724175,5.86206107 L5.51724175,2.06897418 L4.4827617,2.06897418 L4.4827617,2.06897418 Z M5.00655347,7.9310211 C5.29448347,7.9310211 5.51724175,7.69515935 5.51724175,7.40722935 C5.51724175,7.26309199 5.4648281,7.13240284 5.3600009,7.04067845 L5.3600009,7.04067844 C5.26177358,6.94591304 5.12991646,6.89406355 4.99344998,6.89654108 C4.70551997,6.89654108 4.4827617,7.13240284 4.4827617,7.42033283 C4.4827617,7.70826283 4.71862346,7.9310211 5.00655346,7.9310211 L5.00655347,7.9310211 Z" id="形状"></path>
                </g>
            </g>
        </g>
    </g>
</svg>